<?xml version="1.0" encoding="UTF-8"?>
<svg width="229pt" version="1.1" xmlns="http://www.w3.org/2000/svg" height="62pt" viewBox="0 0 229 62" xmlns:xlink="http://www.w3.org/1999/xlink">
 <defs>
  <clipPath id="Clip0">
   <path d="M0 0 L0 61.209 L228.321 61.209 L228.321 0 L0 0 Z" transform="translate(0, 0.791016)"/>
  </clipPath>
 </defs>
 <g id="Background">
  <g id="Group1" clip-path="url(#Clip0)">
   <path style="fill:#161413; fill-rule:nonzero;stroke:none;" d="M8.2832 59.2559 L0 59.2559 L14.4092 0.148437 C15.5771 0.050781 16.749 0 17.9463 0 C36.1045 0 51.5244 11.7139 57.0615 27.9981 L41.3506 35.6621 C48.4443 41.8985 54.3193 49.4961 58.5674 58.0371 L52.0732 61.209 C52.0576 61.1719 52.0361 61.1328 52.0205 61.0938 C46.4424 49.959 37.7979 40.627 27.1943 34.207 L47.501 24.3106 C42.0791 14.9082 32.2998 8.33398 20.9229 7.34863 L8.2832 59.2559 Z" transform="translate(0, 0.791016)"/>
   <path style="fill:#161413; fill-rule:nonzero;stroke:none;" d="M4.29 11.2109 L5.8134 11.2109 C8.1308 11.2109 8.996 10.3457 8.996 7.3711 C8.996 4.3945 8.1308 3.5293 5.8134 3.5293 L4.29 3.5293 L4.29 11.2109 Z M4.29 24.9824 L0 24.9824 L0 0 L6.0195 0 C10.8291 0 13.2871 2.042 13.2871 7.3711 C13.2871 11.3847 11.7294 13.0097 10.2763 13.6679 L13.9091 24.9824 L9.5488 24.9824 L6.5048 14.6367 C5.9502 14.705 5.0507 14.7402 4.29 14.7402 L4.29 24.9824 Z" transform="translate(66.7686, 28.793)"/>
   <path style="fill:#161413; fill-rule:nonzero;stroke:none;" d="M4.2901 19.1689 C4.2901 21.0381 4.8438 21.9385 6.5743 21.9385 C8.3038 21.9385 8.8584 21.0381 8.8584 19.1689 L8.8584 6.5049 C8.8584 4.6377 8.3038 3.7383 6.5743 3.7383 C4.8438 3.7383 4.2901 4.6377 4.2901 6.5049 L4.2901 19.1689 Z M0 6.4014 C0 2.8721 2.0762 0 6.5743 0 C11.0733 0 13.1495 2.8721 13.1495 6.4014 L13.1495 19.2744 C13.1495 22.8037 11.0733 25.6748 6.5743 25.6748 C2.0762 25.6748 0 22.8037 0 19.2744 L0 6.4014 Z" transform="translate(84.0732, 28.4463)"/>
   <path style="fill:#161413; fill-rule:nonzero;stroke:none;" d="M4.291 21.4531 L5.779 21.4531 C8.063 21.4531 8.859 20.5879 8.859 17.959 L8.859 7.0234 C8.859 4.3945 8.063 3.5293 5.779 3.5293 L4.291 3.5293 L4.291 21.4531 Z M0 0 L6.367 0 C10.797 0 13.149 2.4218 13.149 7.5429 L13.149 17.4394 C13.149 22.5605 10.797 24.9824 6.367 24.9824 L0 24.9824 L0 0 Z" transform="translate(101.377, 28.793)"/>
   <path style="fill:#161413; fill-rule:nonzero;stroke:none;" d="M0 24.9824 L0 0 L11.488 0 L11.488 3.7373 L4.291 3.7373 L4.291 10.1718 L9.828 10.1718 L9.828 13.9101 L4.291 13.9101 L4.291 21.2461 L11.972 21.2461 L11.972 24.9824 L0 24.9824 Z" transform="translate(118.682, 28.793)"/>
   <path style="fill:#161413; fill-rule:nonzero;stroke:none;" d="M0 24.9824 L0 0 L3.979 0 L9.204 14.289 L9.273 14.289 L9.273 0 L13.149 0 L13.149 24.9824 L9.412 24.9824 L3.944 9.3769 L3.876 9.3769 L3.876 24.9824 L0 24.9824 Z" transform="translate(134.048, 28.793)"/>
   <path style="fill:#161413; fill-rule:nonzero;stroke:none;" d="M8.929 6.5049 C8.755 4.3603 7.613 3.7383 6.644 3.7383 C5.26 3.7383 4.499 4.6377 4.499 6.1924 C4.499 10.4502 13.219 12.4912 13.219 19.2744 C13.219 23.3916 10.451 25.6748 6.437 25.6748 C2.457 25.6748 0.174 22.4912 0 18.7549 L4.084 18.165 C4.257 20.6924 5.26 21.9385 6.644 21.9385 C8.132 21.9385 9.136 21.1416 9.136 19.6553 C9.136 14.706 0.416 13.3916 0.416 6.2275 C0.416 2.25 2.838 0 7.06 0 C10.555 0 12.63 2.5264 13.011 6.0557 L8.929 6.5049 Z" transform="translate(150.245, 28.4463)"/>
   <path style="fill:#161413; fill-rule:nonzero;stroke:none;" d="M4.152 3.7373 L0 3.7373 L0 0 L12.595 0 L12.595 3.7373 L8.442 3.7373 L8.442 24.9824 L4.152 24.9824 L4.152 3.7373 Z" transform="translate(165.059, 28.793)"/>
   <path style="fill:#161413; fill-rule:nonzero;stroke:none;" d="M4.291 19.1689 C4.291 21.0381 4.843 21.9385 6.574 21.9385 C8.304 21.9385 8.858 21.0381 8.858 19.1689 L8.858 6.5049 C8.858 4.6377 8.304 3.7383 6.574 3.7383 C4.843 3.7383 4.291 4.6377 4.291 6.5049 L4.291 19.1689 Z M0 6.4014 C0 2.8721 2.076 0 6.574 0 C11.072 0 13.149 2.8721 13.149 6.4014 L13.149 19.2744 C13.149 22.8037 11.072 25.6748 6.574 25.6748 C2.076 25.6748 0 22.8037 0 19.2744 L0 6.4014 Z" transform="translate(180.183, 28.4463)"/>
   <path style="fill:#161413; fill-rule:nonzero;stroke:none;" d="M8.651 8.6846 L8.651 6.7471 C8.651 4.6377 7.683 3.7383 6.576 3.7383 C4.845 3.7383 4.291 4.6377 4.291 6.5049 L4.291 19.1689 C4.291 21.0381 4.845 21.9385 6.576 21.9385 C8.132 21.9385 8.651 21.0381 8.651 19.4111 L8.651 16.4014 L12.943 16.4014 L12.943 19.2744 C12.943 22.8037 10.866 25.6748 6.576 25.6748 C2.077 25.6748 0 22.8037 0 19.2744 L0 6.4014 C0 2.8721 2.077 0 6.576 0 C10.866 0 12.943 3.1142 12.943 6.8525 L12.943 8.6846 L8.651 8.6846 Z" transform="translate(197.486, 28.4463)"/>
   <path style="fill:#161413; fill-rule:nonzero;stroke:none;" d="M0 24.9824 L0 0 L4.291 0 L4.291 9.2383 L4.36 9.2383 L8.858 0 L13.149 0 L8.513 9.3066 L13.737 24.9824 L9.378 24.9824 L5.883 13.3554 L5.813 13.3554 L4.291 16.125 L4.291 24.9824 L0 24.9824 Z" transform="translate(214.584, 28.793)"/>
  </g>
 </g>
</svg>
